<svg id="visual" viewBox="0 0 900 600" width="900" height="600" xmlns="http://www.w3.org/2000/svg" xmlns:xlink="http://www.w3.org/1999/xlink" version="1.1"><path d="M0 133L21.5 131.7C43 130.3 86 127.7 128.8 147.7C171.7 167.7 214.3 210.3 257.2 236.7C300 263 343 273 385.8 280C428.7 287 471.3 291 514.2 273.3C557 255.7 600 216.3 642.8 194.3C685.7 172.3 728.3 167.7 771.2 176.8C814 186 857 209 878.5 220.5L900 232L900 601L878.5 601C857 601 814 601 771.2 601C728.3 601 685.7 601 642.8 601C600 601 557 601 514.2 601C471.3 601 428.7 601 385.8 601C343 601 300 601 257.2 601C214.3 601 171.7 601 128.8 601C86 601 43 601 21.5 601L0 601Z" fill="#888ee8"></path><path d="M0 350L21.5 327.3C43 304.7 86 259.3 128.8 255.5C171.7 251.7 214.3 289.3 257.2 293.7C300 298 343 269 385.8 258.8C428.7 248.7 471.3 257.3 514.2 261C557 264.7 600 263.3 642.8 261.8C685.7 260.3 728.3 258.7 771.2 263C814 267.3 857 277.7 878.5 282.8L900 288L900 601L878.5 601C857 601 814 601 771.2 601C728.3 601 685.7 601 642.8 601C600 601 557 601 514.2 601C471.3 601 428.7 601 385.8 601C343 601 300 601 257.2 601C214.3 601 171.7 601 128.8 601C86 601 43 601 21.5 601L0 601Z" fill="#7477db"></path><path d="M0 363L21.5 355.8C43 348.7 86 334.3 128.8 340.5C171.7 346.7 214.3 373.3 257.2 388.5C300 403.7 343 407.3 385.8 400.7C428.7 394 471.3 377 514.2 367.5C557 358 600 356 642.8 368C685.7 380 728.3 406 771.2 403.8C814 401.7 857 371.3 878.5 356.2L900 341L900 601L878.5 601C857 601 814 601 771.2 601C728.3 601 685.7 601 642.8 601C600 601 557 601 514.2 601C471.3 601 428.7 601 385.8 601C343 601 300 601 257.2 601C214.3 601 171.7 601 128.8 601C86 601 43 601 21.5 601L0 601Z" fill="#6260cd"></path><path d="M0 533L21.5 532.5C43 532 86 531 128.8 523.7C171.7 516.3 214.3 502.7 257.2 503.7C300 504.7 343 520.3 385.8 519.8C428.7 519.3 471.3 502.7 514.2 493C557 483.3 600 480.7 642.8 484.8C685.7 489 728.3 500 771.2 500.3C814 500.7 857 490.3 878.5 485.2L900 480L900 601L878.5 601C857 601 814 601 771.2 601C728.3 601 685.7 601 642.8 601C600 601 557 601 514.2 601C471.3 601 428.7 601 385.8 601C343 601 300 601 257.2 601C214.3 601 171.7 601 128.8 601C86 601 43 601 21.5 601L0 601Z" fill="#5049be"></path></svg>