<svg id="visual" viewBox="0 0 900 600" width="900" height="600" xmlns="http://www.w3.org/2000/svg" xmlns:xlink="http://www.w3.org/1999/xlink" version="1.1"><path d="M0 339L18.8 354C37.7 369 75.3 399 112.8 399.2C150.3 399.3 187.7 369.7 225.2 350.8C262.7 332 300.3 324 337.8 333.5C375.3 343 412.7 370 450.2 373.8C487.7 377.7 525.3 358.3 562.8 349.2C600.3 340 637.7 341 675.2 347.8C712.7 354.7 750.3 367.3 787.8 364C825.3 360.7 862.7 341.3 881.3 331.7L900 322L900 601L881.3 601C862.7 601 825.3 601 787.8 601C750.3 601 712.7 601 675.2 601C637.7 601 600.3 601 562.8 601C525.3 601 487.7 601 450.2 601C412.7 601 375.3 601 337.8 601C300.3 601 262.7 601 225.2 601C187.7 601 150.3 601 112.8 601C75.3 601 37.7 601 18.8 601L0 601Z" fill="#888ee8"></path><path d="M0 488L18.8 476.3C37.7 464.7 75.3 441.3 112.8 431.7C150.3 422 187.7 426 225.2 421.2C262.7 416.3 300.3 402.7 337.8 407.3C375.3 412 412.7 435 450.2 441C487.7 447 525.3 436 562.8 433.3C600.3 430.7 637.7 436.3 675.2 434.8C712.7 433.3 750.3 424.7 787.8 418.5C825.3 412.3 862.7 408.7 881.3 406.8L900 405L900 601L881.3 601C862.7 601 825.3 601 787.8 601C750.3 601 712.7 601 675.2 601C637.7 601 600.3 601 562.8 601C525.3 601 487.7 601 450.2 601C412.7 601 375.3 601 337.8 601C300.3 601 262.7 601 225.2 601C187.7 601 150.3 601 112.8 601C75.3 601 37.7 601 18.8 601L0 601Z" fill="#6b6bd4"></path><path d="M0 476L18.8 478.8C37.7 481.7 75.3 487.3 112.8 487.7C150.3 488 187.7 483 225.2 485.3C262.7 487.7 300.3 497.3 337.8 496.8C375.3 496.3 412.7 485.7 450.2 490.8C487.7 496 525.3 517 562.8 528.2C600.3 539.3 637.7 540.7 675.2 533.3C712.7 526 750.3 510 787.8 502C825.3 494 862.7 494 881.3 494L900 494L900 601L881.3 601C862.7 601 825.3 601 787.8 601C750.3 601 712.7 601 675.2 601C637.7 601 600.3 601 562.8 601C525.3 601 487.7 601 450.2 601C412.7 601 375.3 601 337.8 601C300.3 601 262.7 601 225.2 601C187.7 601 150.3 601 112.8 601C75.3 601 37.7 601 18.8 601L0 601Z" fill="#5049be"></path></svg>