<svg id="visual" viewBox="0 0 900 600" width="900" height="600" xmlns="http://www.w3.org/2000/svg" xmlns:xlink="http://www.w3.org/1999/xlink" version="1.1"><path d="M0 280L21.5 272.8C43 265.7 86 251.3 128.8 238.8C171.7 226.3 214.3 215.7 257.2 225.7C300 235.7 343 266.3 385.8 271.8C428.7 277.3 471.3 257.7 514.2 256C557 254.3 600 270.7 642.8 275.8C685.7 281 728.3 275 771.2 261.5C814 248 857 227 878.5 216.5L900 206L900 601L878.5 601C857 601 814 601 771.2 601C728.3 601 685.7 601 642.8 601C600 601 557 601 514.2 601C471.3 601 428.7 601 385.8 601C343 601 300 601 257.2 601C214.3 601 171.7 601 128.8 601C86 601 43 601 21.5 601L0 601Z" fill="#888ee8"></path><path d="M0 296L21.5 315.8C43 335.7 86 375.3 128.8 389.8C171.7 404.3 214.3 393.7 257.2 372.3C300 351 343 319 385.8 308.3C428.7 297.7 471.3 308.3 514.2 326.7C557 345 600 371 642.8 376.3C685.7 381.7 728.3 366.3 771.2 352.5C814 338.7 857 326.3 878.5 320.2L900 314L900 601L878.5 601C857 601 814 601 771.2 601C728.3 601 685.7 601 642.8 601C600 601 557 601 514.2 601C471.3 601 428.7 601 385.8 601C343 601 300 601 257.2 601C214.3 601 171.7 601 128.8 601C86 601 43 601 21.5 601L0 601Z" fill="#7477db"></path><path d="M0 438L21.5 435.7C43 433.3 86 428.7 128.8 435C171.7 441.3 214.3 458.7 257.2 451.2C300 443.7 343 411.3 385.8 394.5C428.7 377.7 471.3 376.3 514.2 375.7C557 375 600 375 642.8 383.3C685.7 391.7 728.3 408.3 771.2 415.8C814 423.3 857 421.7 878.5 420.8L900 420L900 601L878.5 601C857 601 814 601 771.2 601C728.3 601 685.7 601 642.8 601C600 601 557 601 514.2 601C471.3 601 428.7 601 385.8 601C343 601 300 601 257.2 601C214.3 601 171.7 601 128.8 601C86 601 43 601 21.5 601L0 601Z" fill="#6260cd"></path><path d="M0 519L21.5 509.3C43 499.7 86 480.3 128.8 484.7C171.7 489 214.3 517 257.2 523C300 529 343 513 385.8 509.8C428.7 506.7 471.3 516.3 514.2 514.2C557 512 600 498 642.8 497.7C685.7 497.3 728.3 510.7 771.2 519.5C814 528.3 857 532.7 878.5 534.8L900 537L900 601L878.5 601C857 601 814 601 771.2 601C728.3 601 685.7 601 642.8 601C600 601 557 601 514.2 601C471.3 601 428.7 601 385.8 601C343 601 300 601 257.2 601C214.3 601 171.7 601 128.8 601C86 601 43 601 21.5 601L0 601Z" fill="#5049be"></path></svg>