<svg id="visual" viewBox="0 0 960 540" width="960" height="540" xmlns="http://www.w3.org/2000/svg" xmlns:xlink="http://www.w3.org/1999/xlink" version="1.1"><path d="M0 383L20 392C40 401 80 419 120 419.2C160 419.3 200 401.7 240 390.3C280 379 320 374 360 379.7C400 385.3 440 401.7 480 404C520 406.3 560 394.7 600 389.2C640 383.7 680 384.3 720 388.5C760 392.7 800 400.3 840 398.3C880 396.3 920 384.7 940 378.8L960 373L960 541L940 541C920 541 880 541 840 541C800 541 760 541 720 541C680 541 640 541 600 541C560 541 520 541 480 541C440 541 400 541 360 541C320 541 280 541 240 541C200 541 160 541 120 541C80 541 40 541 20 541L0 541Z" fill="#888ee8"></path><path d="M0 473L20 466C40 459 80 445 120 439C160 433 200 435 240 432C280 429 320 421 360 424C400 427 440 441 480 444.5C520 448 560 441 600 439.3C640 437.7 680 441.3 720 440.5C760 439.7 800 434.3 840 430.5C880 426.7 920 424.3 940 423.2L960 422L960 541L940 541C920 541 880 541 840 541C800 541 760 541 720 541C680 541 640 541 600 541C560 541 520 541 480 541C440 541 400 541 360 541C320 541 280 541 240 541C200 541 160 541 120 541C80 541 40 541 20 541L0 541Z" fill="#6b6bd4"></path><path d="M0 465L20 466.8C40 468.7 80 472.3 120 472.7C160 473 200 470 240 471.3C280 472.7 320 478.3 360 477.8C400 477.3 440 470.7 480 473.7C520 476.7 560 489.3 600 496.2C640 503 680 504 720 499.7C760 495.3 800 485.7 840 480.8C880 476 920 476 940 476L960 476L960 541L940 541C920 541 880 541 840 541C800 541 760 541 720 541C680 541 640 541 600 541C560 541 520 541 480 541C440 541 400 541 360 541C320 541 280 541 240 541C200 541 160 541 120 541C80 541 40 541 20 541L0 541Z" fill="#5049be"></path></svg>