<svg id="visual" viewBox="0 0 900 600" width="900" height="600" xmlns="http://www.w3.org/2000/svg" xmlns:xlink="http://www.w3.org/1999/xlink" version="1.1"><path d="M0 225L21.5 244C43 263 86 301 128.8 306.7C171.7 312.3 214.3 285.7 257.2 272.5C300 259.3 343 259.7 385.8 272.7C428.7 285.7 471.3 311.3 514.2 301C557 290.7 600 244.3 642.8 241C685.7 237.7 728.3 277.3 771.2 282.3C814 287.3 857 257.7 878.5 242.8L900 228L900 601L878.5 601C857 601 814 601 771.2 601C728.3 601 685.7 601 642.8 601C600 601 557 601 514.2 601C471.3 601 428.7 601 385.8 601C343 601 300 601 257.2 601C214.3 601 171.7 601 128.8 601C86 601 43 601 21.5 601L0 601Z" fill="#888ee8"></path><path d="M0 275L21.5 291.8C43 308.7 86 342.3 128.8 351.8C171.7 361.3 214.3 346.7 257.2 340C300 333.3 343 334.7 385.8 327.3C428.7 320 471.3 304 514.2 308.7C557 313.3 600 338.7 642.8 335.7C685.7 332.7 728.3 301.3 771.2 291.2C814 281 857 292 878.5 297.5L900 303L900 601L878.5 601C857 601 814 601 771.2 601C728.3 601 685.7 601 642.8 601C600 601 557 601 514.2 601C471.3 601 428.7 601 385.8 601C343 601 300 601 257.2 601C214.3 601 171.7 601 128.8 601C86 601 43 601 21.5 601L0 601Z" fill="#7e82e1"></path><path d="M0 300L21.5 313.7C43 327.3 86 354.7 128.8 372.5C171.7 390.3 214.3 398.7 257.2 391.2C300 383.7 343 360.3 385.8 361C428.7 361.7 471.3 386.3 514.2 389.7C557 393 600 375 642.8 358.5C685.7 342 728.3 327 771.2 320.8C814 314.7 857 317.3 878.5 318.7L900 320L900 601L878.5 601C857 601 814 601 771.2 601C728.3 601 685.7 601 642.8 601C600 601 557 601 514.2 601C471.3 601 428.7 601 385.8 601C343 601 300 601 257.2 601C214.3 601 171.7 601 128.8 601C86 601 43 601 21.5 601L0 601Z" fill="#7477db"></path><path d="M0 456L21.5 441.7C43 427.3 86 398.7 128.8 384.7C171.7 370.7 214.3 371.3 257.2 378C300 384.7 343 397.3 385.8 403.2C428.7 409 471.3 408 514.2 415.3C557 422.7 600 438.3 642.8 444.7C685.7 451 728.3 448 771.2 437C814 426 857 407 878.5 397.5L900 388L900 601L878.5 601C857 601 814 601 771.2 601C728.3 601 685.7 601 642.8 601C600 601 557 601 514.2 601C471.3 601 428.7 601 385.8 601C343 601 300 601 257.2 601C214.3 601 171.7 601 128.8 601C86 601 43 601 21.5 601L0 601Z" fill="#6b6bd4"></path><path d="M0 480L21.5 469C43 458 86 436 128.8 427.5C171.7 419 214.3 424 257.2 426.8C300 429.7 343 430.3 385.8 429.5C428.7 428.7 471.3 426.3 514.2 435.5C557 444.7 600 465.3 642.8 476.5C685.7 487.7 728.3 489.3 771.2 487.8C814 486.3 857 481.7 878.5 479.3L900 477L900 601L878.5 601C857 601 814 601 771.2 601C728.3 601 685.7 601 642.8 601C600 601 557 601 514.2 601C471.3 601 428.7 601 385.8 601C343 601 300 601 257.2 601C214.3 601 171.7 601 128.8 601C86 601 43 601 21.5 601L0 601Z" fill="#6260cd"></path><path d="M0 462L21.5 471.3C43 480.7 86 499.3 128.8 507.2C171.7 515 214.3 512 257.2 507.7C300 503.3 343 497.7 385.8 499.5C428.7 501.3 471.3 510.7 514.2 507.3C557 504 600 488 642.8 485.8C685.7 483.7 728.3 495.3 771.2 501.2C814 507 857 507 878.5 507L900 507L900 601L878.5 601C857 601 814 601 771.2 601C728.3 601 685.7 601 642.8 601C600 601 557 601 514.2 601C471.3 601 428.7 601 385.8 601C343 601 300 601 257.2 601C214.3 601 171.7 601 128.8 601C86 601 43 601 21.5 601L0 601Z" fill="#5954c5"></path><path d="M0 526L21.5 528C43 530 86 534 128.8 538.3C171.7 542.7 214.3 547.3 257.2 544.3C300 541.3 343 530.7 385.8 532.2C428.7 533.7 471.3 547.3 514.2 545.8C557 544.3 600 527.7 642.8 528.8C685.7 530 728.3 549 771.2 553.8C814 558.7 857 549.3 878.5 544.7L900 540L900 601L878.5 601C857 601 814 601 771.2 601C728.3 601 685.7 601 642.8 601C600 601 557 601 514.2 601C471.3 601 428.7 601 385.8 601C343 601 300 601 257.2 601C214.3 601 171.7 601 128.8 601C86 601 43 601 21.5 601L0 601Z" fill="#5049be"></path></svg>