<svg id="visual" viewBox="0 0 960 540" width="960" height="540" xmlns="http://www.w3.org/2000/svg" xmlns:xlink="http://www.w3.org/1999/xlink" version="1.1"><rect x="0" y="0" width="960" height="540" fill="#9ab9d0"></rect><path d="M0 464L20 455.3C40 446.7 80 429.3 120 427.2C160 425 200 438 240 438.3C280 438.7 320 426.3 360 427.8C400 429.3 440 444.7 480 448.2C520 451.7 560 443.3 600 437.3C640 431.3 680 427.7 720 433C760 438.3 800 452.7 840 456C880 459.3 920 451.7 940 447.8L960 444L960 541L940 541C920 541 880 541 840 541C800 541 760 541 720 541C680 541 640 541 600 541C560 541 520 541 480 541C440 541 400 541 360 541C320 541 280 541 240 541C200 541 160 541 120 541C80 541 40 541 20 541L0 541Z" fill="#888ee8"></path><path d="M0 480L20 475.5C40 471 80 462 120 459.5C160 457 200 461 240 464.2C280 467.3 320 469.7 360 472.2C400 474.7 440 477.3 480 475C520 472.7 560 465.3 600 462.3C640 459.3 680 460.7 720 462C760 463.3 800 464.7 840 469.3C880 474 920 482 940 486L960 490L960 541L940 541C920 541 880 541 840 541C800 541 760 541 720 541C680 541 640 541 600 541C560 541 520 541 480 541C440 541 400 541 360 541C320 541 280 541 240 541C200 541 160 541 120 541C80 541 40 541 20 541L0 541Z" fill="#6b6bd4"></path><path d="M0 480L20 480.8C40 481.7 80 483.3 120 488C160 492.7 200 500.3 240 502C280 503.7 320 499.3 360 501C400 502.7 440 510.3 480 508C520 505.7 560 493.3 600 493C640 492.7 680 504.3 720 507.7C760 511 800 506 840 504.5C880 503 920 505 940 506L960 507L960 541L940 541C920 541 880 541 840 541C800 541 760 541 720 541C680 541 640 541 600 541C560 541 520 541 480 541C440 541 400 541 360 541C320 541 280 541 240 541C200 541 160 541 120 541C80 541 40 541 20 541L0 541Z" fill="#5049be"></path></svg>