<svg id="visual" viewBox="0 0 900 600" width="900" height="600" xmlns="http://www.w3.org/2000/svg" xmlns:xlink="http://www.w3.org/1999/xlink" version="1.1"><path d="M0 129L21.5 150.7C43 172.3 86 215.7 128.8 237.7C171.7 259.7 214.3 260.3 257.2 265C300 269.7 343 278.3 385.8 271.5C428.7 264.7 471.3 242.3 514.2 235.5C557 228.7 600 237.3 642.8 237.8C685.7 238.3 728.3 230.7 771.2 212.8C814 195 857 167 878.5 153L900 139L900 601L878.5 601C857 601 814 601 771.2 601C728.3 601 685.7 601 642.8 601C600 601 557 601 514.2 601C471.3 601 428.7 601 385.8 601C343 601 300 601 257.2 601C214.3 601 171.7 601 128.8 601C86 601 43 601 21.5 601L0 601Z" fill="#888ee8"></path><path d="M0 295L21.5 287.7C43 280.3 86 265.7 128.8 273C171.7 280.3 214.3 309.7 257.2 321.7C300 333.7 343 328.3 385.8 313.8C428.7 299.3 471.3 275.7 514.2 275.3C557 275 600 298 642.8 299.8C685.7 301.7 728.3 282.3 771.2 274.7C814 267 857 271 878.5 273L900 275L900 601L878.5 601C857 601 814 601 771.2 601C728.3 601 685.7 601 642.8 601C600 601 557 601 514.2 601C471.3 601 428.7 601 385.8 601C343 601 300 601 257.2 601C214.3 601 171.7 601 128.8 601C86 601 43 601 21.5 601L0 601Z" fill="#7c80e0"></path><path d="M0 263L21.5 266.3C43 269.7 86 276.3 128.8 294.7C171.7 313 214.3 343 257.2 361.2C300 379.3 343 385.7 385.8 368.8C428.7 352 471.3 312 514.2 288.5C557 265 600 258 642.8 260C685.7 262 728.3 273 771.2 287.8C814 302.7 857 321.3 878.5 330.7L900 340L900 601L878.5 601C857 601 814 601 771.2 601C728.3 601 685.7 601 642.8 601C600 601 557 601 514.2 601C471.3 601 428.7 601 385.8 601C343 601 300 601 257.2 601C214.3 601 171.7 601 128.8 601C86 601 43 601 21.5 601L0 601Z" fill="#7172d8"></path><path d="M0 389L21.5 392C43 395 86 401 128.8 405C171.7 409 214.3 411 257.2 403.5C300 396 343 379 385.8 372.3C428.7 365.7 471.3 369.3 514.2 369.7C557 370 600 367 642.8 362.8C685.7 358.7 728.3 353.3 771.2 361.5C814 369.7 857 391.3 878.5 402.2L900 413L900 601L878.5 601C857 601 814 601 771.2 601C728.3 601 685.7 601 642.8 601C600 601 557 601 514.2 601C471.3 601 428.7 601 385.8 601C343 601 300 601 257.2 601C214.3 601 171.7 601 128.8 601C86 601 43 601 21.5 601L0 601Z" fill="#6664d0"></path><path d="M0 500L21.5 487.8C43 475.7 86 451.3 128.8 440.8C171.7 430.3 214.3 433.7 257.2 432.3C300 431 343 425 385.8 427.8C428.7 430.7 471.3 442.3 514.2 445.3C557 448.3 600 442.7 642.8 448.5C685.7 454.3 728.3 471.7 771.2 465.2C814 458.7 857 428.3 878.5 413.2L900 398L900 601L878.5 601C857 601 814 601 771.2 601C728.3 601 685.7 601 642.8 601C600 601 557 601 514.2 601C471.3 601 428.7 601 385.8 601C343 601 300 601 257.2 601C214.3 601 171.7 601 128.8 601C86 601 43 601 21.5 601L0 601Z" fill="#5b57c7"></path><path d="M0 477L21.5 480.5C43 484 86 491 128.8 499.3C171.7 507.7 214.3 517.3 257.2 518.2C300 519 343 511 385.8 511.5C428.7 512 471.3 521 514.2 521.3C557 521.7 600 513.3 642.8 510.3C685.7 507.3 728.3 509.7 771.2 518.2C814 526.7 857 541.3 878.5 548.7L900 556L900 601L878.5 601C857 601 814 601 771.2 601C728.3 601 685.7 601 642.8 601C600 601 557 601 514.2 601C471.3 601 428.7 601 385.8 601C343 601 300 601 257.2 601C214.3 601 171.7 601 128.8 601C86 601 43 601 21.5 601L0 601Z" fill="#5049be"></path></svg>