<svg id="visual" viewBox="0 0 900 600" width="900" height="600" xmlns="http://www.w3.org/2000/svg" xmlns:xlink="http://www.w3.org/1999/xlink" version="1.1"><path d="M0 561L15 559.8C30 558.7 60 556.3 90 551.8C120 547.3 150 540.7 180 538.8C210 537 240 540 270 537.2C300 534.3 330 525.7 360 521.8C390 518 420 519 450 523C480 527 510 534 540 541.2C570 548.3 600 555.7 630 556C660 556.3 690 549.7 720 543.8C750 538 780 533 810 531.2C840 529.3 870 530.7 885 531.3L900 532L900 601L885 601C870 601 840 601 810 601C780 601 750 601 720 601C690 601 660 601 630 601C600 601 570 601 540 601C510 601 480 601 450 601C420 601 390 601 360 601C330 601 300 601 270 601C240 601 210 601 180 601C150 601 120 601 90 601C60 601 30 601 15 601L0 601Z" fill="#7e82e1" stroke-linecap="round" stroke-linejoin="miter"></path></svg>