<svg id="visual" viewBox="0 0 900 600" width="900" height="600" xmlns="http://www.w3.org/2000/svg" xmlns:xlink="http://www.w3.org/1999/xlink" version="1.1"><path d="M0 320L12.5 320.7C25 321.3 50 322.7 75 332.2C100 341.7 125 359.3 150 368C175 376.7 200 376.3 225 364.8C250 353.3 275 330.7 300 332.5C325 334.3 350 360.7 375 378.7C400 396.7 425 406.3 450 394.2C475 382 500 348 525 339.5C550 331 575 348 600 364.8C625 381.7 650 398.3 675 406.5C700 414.7 725 414.3 750 416C775 417.7 800 421.3 825 411.3C850 401.3 875 377.7 887.5 365.8L900 354L900 601L887.5 601C875 601 850 601 825 601C800 601 775 601 750 601C725 601 700 601 675 601C650 601 625 601 600 601C575 601 550 601 525 601C500 601 475 601 450 601C425 601 400 601 375 601C350 601 325 601 300 601C275 601 250 601 225 601C200 601 175 601 150 601C125 601 100 601 75 601C50 601 25 601 12.5 601L0 601Z" fill="#888ee8"></path><path d="M0 381L12.5 395C25 409 50 437 75 438.5C100 440 125 415 150 405.5C175 396 200 402 225 415.5C250 429 275 450 300 456.2C325 462.3 350 453.7 375 448.3C400 443 425 441 450 429.2C475 417.3 500 395.7 525 394.3C550 393 575 412 600 414.7C625 417.3 650 403.7 675 406.3C700 409 725 428 750 430.3C775 432.7 800 418.3 825 405.3C850 392.3 875 380.7 887.5 374.8L900 369L900 601L887.5 601C875 601 850 601 825 601C800 601 775 601 750 601C725 601 700 601 675 601C650 601 625 601 600 601C575 601 550 601 525 601C500 601 475 601 450 601C425 601 400 601 375 601C350 601 325 601 300 601C275 601 250 601 225 601C200 601 175 601 150 601C125 601 100 601 75 601C50 601 25 601 12.5 601L0 601Z" fill="#7477db"></path><path d="M0 458L12.5 461.8C25 465.7 50 473.3 75 468.8C100 464.3 125 447.7 150 446.2C175 444.7 200 458.3 225 460.8C250 463.3 275 454.7 300 460.7C325 466.7 350 487.3 375 497C400 506.7 425 505.3 450 493.3C475 481.3 500 458.7 525 457.5C550 456.3 575 476.7 600 476.8C625 477 650 457 675 449C700 441 725 445 750 453.8C775 462.7 800 476.3 825 477.2C850 478 875 466 887.5 460L900 454L900 601L887.5 601C875 601 850 601 825 601C800 601 775 601 750 601C725 601 700 601 675 601C650 601 625 601 600 601C575 601 550 601 525 601C500 601 475 601 450 601C425 601 400 601 375 601C350 601 325 601 300 601C275 601 250 601 225 601C200 601 175 601 150 601C125 601 100 601 75 601C50 601 25 601 12.5 601L0 601Z" fill="#6260cd"></path><path d="M0 551L12.5 546.3C25 541.7 50 532.3 75 525.8C100 519.3 125 515.7 150 512.3C175 509 200 506 225 504C250 502 275 501 300 499C325 497 350 494 375 503.8C400 513.7 425 536.3 450 547C475 557.7 500 556.3 525 547.2C550 538 575 521 600 516.3C625 511.7 650 519.3 675 517.7C700 516 725 505 750 507.8C775 510.7 800 527.3 825 530.5C850 533.7 875 523.3 887.5 518.2L900 513L900 601L887.5 601C875 601 850 601 825 601C800 601 775 601 750 601C725 601 700 601 675 601C650 601 625 601 600 601C575 601 550 601 525 601C500 601 475 601 450 601C425 601 400 601 375 601C350 601 325 601 300 601C275 601 250 601 225 601C200 601 175 601 150 601C125 601 100 601 75 601C50 601 25 601 12.5 601L0 601Z" fill="#5049be"></path></svg>