<svg id="visual" viewBox="0 0 960 540" width="960" height="540" xmlns="http://www.w3.org/2000/svg" xmlns:xlink="http://www.w3.org/1999/xlink" version="1.1"><path d="M0 114L14.5 104.2C29 94.3 58 74.7 87.2 85.5C116.3 96.3 145.7 137.7 174.8 151.2C204 164.7 233 150.3 262 147.7C291 145 320 154 349 155.8C378 157.7 407 152.3 436.2 149.7C465.3 147 494.7 147 523.8 158.7C553 170.3 582 193.7 611 203.5C640 213.3 669 209.7 698 185.3C727 161 756 116 785.2 101.7C814.3 87.3 843.7 103.7 872.8 105.5C902 107.3 931 94.7 945.5 88.3L960 82L960 0L945.5 0C931 0 902 0 872.8 0C843.7 0 814.3 0 785.2 0C756 0 727 0 698 0C669 0 640 0 611 0C582 0 553 0 523.8 0C494.7 0 465.3 0 436.2 0C407 0 378 0 349 0C320 0 291 0 262 0C233 0 204 0 174.8 0C145.7 0 116.3 0 87.2 0C58 0 29 0 14.5 0L0 0Z" fill="#6198ff"></path><path d="M0 185L14.5 173.2C29 161.3 58 137.7 87.2 157.3C116.3 177 145.7 240 174.8 261.7C204 283.3 233 263.7 262 258.3C291 253 320 262 349 262C378 262 407 253 436.2 246.7C465.3 240.3 494.7 236.7 523.8 243.8C553 251 582 269 611 274.5C640 280 669 273 698 249.7C727 226.3 756 186.7 785.2 176.7C814.3 166.7 843.7 186.3 872.8 183.7C902 181 931 156 945.5 143.5L960 131L960 80L945.5 86.3C931 92.7 902 105.3 872.8 103.5C843.7 101.7 814.3 85.3 785.2 99.7C756 114 727 159 698 183.3C669 207.7 640 211.3 611 201.5C582 191.7 553 168.3 523.8 156.7C494.7 145 465.3 145 436.2 147.7C407 150.3 378 155.7 349 153.8C320 152 291 143 262 145.7C233 148.3 204 162.7 174.8 149.2C145.7 135.7 116.3 94.3 87.2 83.5C58 72.7 29 92.3 14.5 102.2L0 112Z" fill="#3c80ff"></path><path d="M0 374L14.5 366.7C29 359.3 58 344.7 87.2 359.8C116.3 375 145.7 420 174.8 431.8C204 443.7 233 422.3 262 413.3C291 404.3 320 407.7 349 402.2C378 396.7 407 382.3 436.2 379.7C465.3 377 494.7 386 523.8 392.3C553 398.7 582 402.3 611 403.3C640 404.3 669 402.7 698 389.2C727 375.7 756 350.3 785.2 353.8C814.3 357.3 843.7 389.7 872.8 395C902 400.3 931 378.7 945.5 367.8L960 357L960 129L945.5 141.5C931 154 902 179 872.8 181.7C843.7 184.3 814.3 164.7 785.2 174.7C756 184.7 727 224.3 698 247.7C669 271 640 278 611 272.5C582 267 553 249 523.8 241.8C494.7 234.7 465.3 238.3 436.2 244.7C407 251 378 260 349 260C320 260 291 251 262 256.3C233 261.7 204 281.3 174.8 259.7C145.7 238 116.3 175 87.2 155.3C58 135.7 29 159.3 14.5 171.2L0 183Z" fill="#0066ff"></path><path d="M0 476L14.5 460.7C29 445.3 58 414.7 87.2 418.3C116.3 422 145.7 460 174.8 471.8C204 483.7 233 469.3 262 467.5C291 465.7 320 476.3 349 467.3C378 458.3 407 429.7 436.2 423.3C465.3 417 494.7 433 523.8 443.7C553 454.3 582 459.7 611 457.8C640 456 669 447 698 433.5C727 420 756 402 785.2 413.8C814.3 425.7 843.7 467.3 872.8 471.8C902 476.3 931 443.7 945.5 427.3L960 411L960 355L945.5 365.8C931 376.7 902 398.3 872.8 393C843.7 387.7 814.3 355.3 785.2 351.8C756 348.3 727 373.7 698 387.2C669 400.7 640 402.3 611 401.3C582 400.3 553 396.7 523.8 390.3C494.7 384 465.3 375 436.2 377.7C407 380.3 378 394.7 349 400.2C320 405.7 291 402.3 262 411.3C233 420.3 204 441.7 174.8 429.8C145.7 418 116.3 373 87.2 357.8C58 342.7 29 357.3 14.5 364.7L0 372Z" fill="#0059dd"></path><path d="M0 541L14.5 541C29 541 58 541 87.2 541C116.3 541 145.7 541 174.8 541C204 541 233 541 262 541C291 541 320 541 349 541C378 541 407 541 436.2 541C465.3 541 494.7 541 523.8 541C553 541 582 541 611 541C640 541 669 541 698 541C727 541 756 541 785.2 541C814.3 541 843.7 541 872.8 541C902 541 931 541 945.5 541L960 541L960 409L945.5 425.3C931 441.7 902 474.3 872.8 469.8C843.7 465.3 814.3 423.7 785.2 411.8C756 400 727 418 698 431.5C669 445 640 454 611 455.8C582 457.7 553 452.3 523.8 441.7C494.7 431 465.3 415 436.2 421.3C407 427.7 378 456.3 349 465.3C320 474.3 291 463.7 262 465.5C233 467.3 204 481.7 174.8 469.8C145.7 458 116.3 420 87.2 416.3C58 412.7 29 443.3 14.5 458.7L0 474Z" fill="#004cbb"></path></svg>