<svg id="visual" viewBox="0 0 900 600" width="900" height="600" xmlns="http://www.w3.org/2000/svg" xmlns:xlink="http://www.w3.org/1999/xlink" version="1.1"><path d="M0 49L13.7 60C27.3 71 54.7 93 82 98C109.3 103 136.7 91 163.8 78C191 65 218 51 245.2 57C272.3 63 299.7 89 327 86C354.3 83 381.7 51 409 46C436.3 41 463.7 63 491 73C518.3 83 545.7 81 573 84C600.3 87 627.7 95 654.8 96C682 97 709 91 736.2 92C763.3 93 790.7 101 818 102C845.3 103 872.7 97 886.3 94L900 91L900 0L886.3 0C872.7 0 845.3 0 818 0C790.7 0 763.3 0 736.2 0C709 0 682 0 654.8 0C627.7 0 600.3 0 573 0C545.7 0 518.3 0 491 0C463.7 0 436.3 0 409 0C381.7 0 354.3 0 327 0C299.7 0 272.3 0 245.2 0C218 0 191 0 163.8 0C136.7 0 109.3 0 82 0C54.7 0 27.3 0 13.7 0L0 0Z" fill="#12040b"></path><path d="M0 157L13.7 201C27.3 245 54.7 333 82 376C109.3 419 136.7 417 163.8 375C191 333 218 251 245.2 240C272.3 229 299.7 289 327 281C354.3 273 381.7 197 409 197C436.3 197 463.7 273 491 300C518.3 327 545.7 305 573 285C600.3 265 627.7 247 654.8 222C682 197 709 165 736.2 169C763.3 173 790.7 213 818 240C845.3 267 872.7 281 886.3 288L900 295L900 89L886.3 92C872.7 95 845.3 101 818 100C790.7 99 763.3 91 736.2 90C709 89 682 95 654.8 94C627.7 93 600.3 85 573 82C545.7 79 518.3 81 491 71C463.7 61 436.3 39 409 44C381.7 49 354.3 81 327 84C299.7 87 272.3 61 245.2 55C218 49 191 63 163.8 76C136.7 89 109.3 101 82 96C54.7 91 27.3 69 13.7 58L0 47Z" fill="#14040d"></path><path d="M0 199L13.7 242C27.3 285 54.7 371 82 416C109.3 461 136.7 465 163.8 435C191 405 218 341 245.2 334C272.3 327 299.7 377 327 373C354.3 369 381.7 311 409 313C436.3 315 463.7 377 491 397C518.3 417 545.7 395 573 376C600.3 357 627.7 341 654.8 308C682 275 709 225 736.2 232C763.3 239 790.7 303 818 328C845.3 353 872.7 339 886.3 332L900 325L900 293L886.3 286C872.7 279 845.3 265 818 238C790.7 211 763.3 171 736.2 167C709 163 682 195 654.8 220C627.7 245 600.3 263 573 283C545.7 303 518.3 325 491 298C463.7 271 436.3 195 409 195C381.7 195 354.3 271 327 279C299.7 287 272.3 227 245.2 238C218 249 191 331 163.8 373C136.7 415 109.3 417 82 374C54.7 331 27.3 243 13.7 199L0 155Z" fill="#16050e"></path><path d="M0 487L13.7 495C27.3 503 54.7 519 82 529C109.3 539 136.7 543 163.8 533C191 523 218 499 245.2 499C272.3 499 299.7 523 327 525C354.3 527 381.7 507 409 500C436.3 493 463.7 499 491 507C518.3 515 545.7 525 573 535C600.3 545 627.7 555 654.8 535C682 515 709 465 736.2 465C763.3 465 790.7 515 818 513C845.3 511 872.7 457 886.3 430L900 403L900 323L886.3 330C872.7 337 845.3 351 818 326C790.7 301 763.3 237 736.2 230C709 223 682 273 654.8 306C627.7 339 600.3 355 573 374C545.7 393 518.3 415 491 395C463.7 375 436.3 313 409 311C381.7 309 354.3 367 327 371C299.7 375 272.3 325 245.2 332C218 339 191 403 163.8 433C136.7 463 109.3 459 82 414C54.7 369 27.3 283 13.7 240L0 197Z" fill="#2f1321"></path><path d="M0 601L13.7 601C27.3 601 54.7 601 82 601C109.3 601 136.7 601 163.8 601C191 601 218 601 245.2 601C272.3 601 299.7 601 327 601C354.3 601 381.7 601 409 601C436.3 601 463.7 601 491 601C518.3 601 545.7 601 573 601C600.3 601 627.7 601 654.8 601C682 601 709 601 736.2 601C763.3 601 790.7 601 818 601C845.3 601 872.7 601 886.3 601L900 601L900 401L886.3 428C872.7 455 845.3 509 818 511C790.7 513 763.3 463 736.2 463C709 463 682 513 654.8 533C627.7 553 600.3 543 573 533C545.7 523 518.3 513 491 505C463.7 497 436.3 491 409 498C381.7 505 354.3 525 327 523C299.7 521 272.3 497 245.2 497C218 497 191 521 163.8 531C136.7 541 109.3 537 82 527C54.7 517 27.3 501 13.7 493L0 485Z" fill="#4c1a34"></path></svg>